G04 #@! TF.FileFunction,Legend,Top*
%FSLAX46Y46*%
G04 Gerber Fmt 4.6, Leading zero omitted, Abs format (unit mm)*
G04 Created by KiCad (PCBNEW 4.0.7) date Friday, April 27, 2018 'AMt' 09:02:40 AM*
%MOMM*%
%LPD*%
G01*
G04 APERTURE LIST*
%ADD10C,0.100000*%
%ADD11C,0.120000*%
%ADD12C,0.150000*%
G04 APERTURE END LIST*
D10*
D11*
X150271100Y-99073600D02*
X149271100Y-99073600D01*
X149271100Y-100773600D02*
X150271100Y-100773600D01*
X150271100Y-99073600D02*
X149271100Y-99073600D01*
X149271100Y-100773600D02*
X150271100Y-100773600D01*
X148471100Y-99423600D02*
X148471100Y-100423600D01*
X148471100Y-100423600D02*
X150571100Y-100423600D01*
X148471100Y-99423600D02*
X150571100Y-99423600D01*
X148771100Y-96623600D02*
X150771100Y-96623600D01*
X148771100Y-103223600D02*
X150771100Y-103223600D01*
X153071100Y-98923600D02*
X153071100Y-100923600D01*
X146471100Y-98923600D02*
X146471100Y-100923600D01*
X151211100Y-98863600D02*
X151211100Y-106983600D01*
X151211100Y-106983600D02*
X152831100Y-106983600D01*
X152831100Y-106983600D02*
X152831100Y-98863600D01*
X152831100Y-98863600D02*
X151211100Y-98863600D01*
X152831100Y-99613600D02*
X157031100Y-99613600D01*
X157031100Y-99613600D02*
X157031100Y-100233600D01*
X157031100Y-100233600D02*
X152831100Y-100233600D01*
X152831100Y-99673600D02*
X157031100Y-99673600D01*
X152831100Y-99793600D02*
X157031100Y-99793600D01*
X152831100Y-99913600D02*
X157031100Y-99913600D01*
X152831100Y-100033600D02*
X157031100Y-100033600D01*
X152831100Y-100153600D02*
X157031100Y-100153600D01*
X150706100Y-99613600D02*
X151211100Y-99613600D01*
X150706100Y-100233600D02*
X151211100Y-100233600D01*
X151211100Y-100923600D02*
X152831100Y-100923600D01*
X152831100Y-101613600D02*
X157031100Y-101613600D01*
X157031100Y-101613600D02*
X157031100Y-102233600D01*
X157031100Y-102233600D02*
X152831100Y-102233600D01*
X150653214Y-101613600D02*
X151211100Y-101613600D01*
X150653214Y-102233600D02*
X151211100Y-102233600D01*
X151211100Y-102923600D02*
X152831100Y-102923600D01*
X152831100Y-103613600D02*
X157031100Y-103613600D01*
X157031100Y-103613600D02*
X157031100Y-104233600D01*
X157031100Y-104233600D02*
X152831100Y-104233600D01*
X150653214Y-103613600D02*
X151211100Y-103613600D01*
X150653214Y-104233600D02*
X151211100Y-104233600D01*
X151211100Y-104923600D02*
X152831100Y-104923600D01*
X152831100Y-105613600D02*
X157031100Y-105613600D01*
X157031100Y-105613600D02*
X157031100Y-106233600D01*
X157031100Y-106233600D02*
X152831100Y-106233600D01*
X150653214Y-105613600D02*
X151211100Y-105613600D01*
X150653214Y-106233600D02*
X151211100Y-106233600D01*
X148771100Y-99923600D02*
X148771100Y-98923600D01*
X148771100Y-98923600D02*
X149771100Y-98923600D01*
X151211100Y-98863600D02*
X151211100Y-106983600D01*
X151211100Y-106983600D02*
X152831100Y-106983600D01*
X152831100Y-106983600D02*
X152831100Y-98863600D01*
X152831100Y-98863600D02*
X151211100Y-98863600D01*
X152831100Y-99613600D02*
X157031100Y-99613600D01*
X157031100Y-99613600D02*
X157031100Y-100233600D01*
X157031100Y-100233600D02*
X152831100Y-100233600D01*
X152831100Y-99673600D02*
X157031100Y-99673600D01*
X152831100Y-99793600D02*
X157031100Y-99793600D01*
X152831100Y-99913600D02*
X157031100Y-99913600D01*
X152831100Y-100033600D02*
X157031100Y-100033600D01*
X152831100Y-100153600D02*
X157031100Y-100153600D01*
X150706100Y-99613600D02*
X151211100Y-99613600D01*
X150706100Y-100233600D02*
X151211100Y-100233600D01*
X151211100Y-100923600D02*
X152831100Y-100923600D01*
X152831100Y-101613600D02*
X157031100Y-101613600D01*
X157031100Y-101613600D02*
X157031100Y-102233600D01*
X157031100Y-102233600D02*
X152831100Y-102233600D01*
X150653214Y-101613600D02*
X151211100Y-101613600D01*
X150653214Y-102233600D02*
X151211100Y-102233600D01*
X151211100Y-102923600D02*
X152831100Y-102923600D01*
X152831100Y-103613600D02*
X157031100Y-103613600D01*
X157031100Y-103613600D02*
X157031100Y-104233600D01*
X157031100Y-104233600D02*
X152831100Y-104233600D01*
X150653214Y-103613600D02*
X151211100Y-103613600D01*
X150653214Y-104233600D02*
X151211100Y-104233600D01*
X151211100Y-104923600D02*
X152831100Y-104923600D01*
X152831100Y-105613600D02*
X157031100Y-105613600D01*
X157031100Y-105613600D02*
X157031100Y-106233600D01*
X157031100Y-106233600D02*
X152831100Y-106233600D01*
X150653214Y-105613600D02*
X151211100Y-105613600D01*
X150653214Y-106233600D02*
X151211100Y-106233600D01*
X148771100Y-99923600D02*
X148771100Y-98923600D01*
X148771100Y-98923600D02*
X149771100Y-98923600D01*
X151211100Y-98863600D02*
X151211100Y-106983600D01*
X151211100Y-106983600D02*
X152831100Y-106983600D01*
X152831100Y-106983600D02*
X152831100Y-98863600D01*
X152831100Y-98863600D02*
X151211100Y-98863600D01*
X152831100Y-99613600D02*
X157031100Y-99613600D01*
X157031100Y-99613600D02*
X157031100Y-100233600D01*
X157031100Y-100233600D02*
X152831100Y-100233600D01*
X152831100Y-99673600D02*
X157031100Y-99673600D01*
X152831100Y-99793600D02*
X157031100Y-99793600D01*
X152831100Y-99913600D02*
X157031100Y-99913600D01*
X152831100Y-100033600D02*
X157031100Y-100033600D01*
X152831100Y-100153600D02*
X157031100Y-100153600D01*
X150706100Y-99613600D02*
X151211100Y-99613600D01*
X150706100Y-100233600D02*
X151211100Y-100233600D01*
X151211100Y-100923600D02*
X152831100Y-100923600D01*
X152831100Y-101613600D02*
X157031100Y-101613600D01*
X157031100Y-101613600D02*
X157031100Y-102233600D01*
X157031100Y-102233600D02*
X152831100Y-102233600D01*
X150653214Y-101613600D02*
X151211100Y-101613600D01*
X150653214Y-102233600D02*
X151211100Y-102233600D01*
X151211100Y-102923600D02*
X152831100Y-102923600D01*
X152831100Y-103613600D02*
X157031100Y-103613600D01*
X157031100Y-103613600D02*
X157031100Y-104233600D01*
X157031100Y-104233600D02*
X152831100Y-104233600D01*
X150653214Y-103613600D02*
X151211100Y-103613600D01*
X150653214Y-104233600D02*
X151211100Y-104233600D01*
X151211100Y-104923600D02*
X152831100Y-104923600D01*
X152831100Y-105613600D02*
X157031100Y-105613600D01*
X157031100Y-105613600D02*
X157031100Y-106233600D01*
X157031100Y-106233600D02*
X152831100Y-106233600D01*
X150653214Y-105613600D02*
X151211100Y-105613600D01*
X150653214Y-106233600D02*
X151211100Y-106233600D01*
X148771100Y-99923600D02*
X148771100Y-98923600D01*
X148771100Y-98923600D02*
X149771100Y-98923600D01*
X151211100Y-98863600D02*
X151211100Y-106983600D01*
X151211100Y-106983600D02*
X152831100Y-106983600D01*
X152831100Y-106983600D02*
X152831100Y-98863600D01*
X152831100Y-98863600D02*
X151211100Y-98863600D01*
X152831100Y-99613600D02*
X157031100Y-99613600D01*
X157031100Y-99613600D02*
X157031100Y-100233600D01*
X157031100Y-100233600D02*
X152831100Y-100233600D01*
X152831100Y-99673600D02*
X157031100Y-99673600D01*
X152831100Y-99793600D02*
X157031100Y-99793600D01*
X152831100Y-99913600D02*
X157031100Y-99913600D01*
X152831100Y-100033600D02*
X157031100Y-100033600D01*
X152831100Y-100153600D02*
X157031100Y-100153600D01*
X150706100Y-99613600D02*
X151211100Y-99613600D01*
X150706100Y-100233600D02*
X151211100Y-100233600D01*
X151211100Y-100923600D02*
X152831100Y-100923600D01*
X152831100Y-101613600D02*
X157031100Y-101613600D01*
X157031100Y-101613600D02*
X157031100Y-102233600D01*
X157031100Y-102233600D02*
X152831100Y-102233600D01*
X150653214Y-101613600D02*
X151211100Y-101613600D01*
X150653214Y-102233600D02*
X151211100Y-102233600D01*
X151211100Y-102923600D02*
X152831100Y-102923600D01*
X152831100Y-103613600D02*
X157031100Y-103613600D01*
X157031100Y-103613600D02*
X157031100Y-104233600D01*
X157031100Y-104233600D02*
X152831100Y-104233600D01*
X150653214Y-103613600D02*
X151211100Y-103613600D01*
X150653214Y-104233600D02*
X151211100Y-104233600D01*
X151211100Y-104923600D02*
X152831100Y-104923600D01*
X152831100Y-105613600D02*
X157031100Y-105613600D01*
X157031100Y-105613600D02*
X157031100Y-106233600D01*
X157031100Y-106233600D02*
X152831100Y-106233600D01*
X150653214Y-105613600D02*
X151211100Y-105613600D01*
X150653214Y-106233600D02*
X151211100Y-106233600D01*
X148771100Y-99923600D02*
X148771100Y-98923600D01*
X148771100Y-98923600D02*
X149771100Y-98923600D01*
X148711100Y-104983600D02*
X152831100Y-104983600D01*
X148711100Y-100923600D02*
X148711100Y-104983600D01*
X152831100Y-98863600D02*
X152831100Y-104983600D01*
X148711100Y-100923600D02*
X150771100Y-100923600D01*
X150771100Y-100923600D02*
X150771100Y-98863600D01*
X150771100Y-98863600D02*
X152831100Y-98863600D01*
X148711100Y-99923600D02*
X148711100Y-98863600D01*
X148711100Y-98863600D02*
X149771100Y-98863600D01*
D12*
X149771100Y-46583600D02*
X149771100Y-99923600D01*
X215811100Y-59283600D02*
X215811100Y-48107600D01*
X218351100Y-61823600D02*
X215811100Y-59283600D01*
X218351100Y-96113600D02*
X218351100Y-61823600D01*
X215811100Y-98653600D02*
X218351100Y-96113600D01*
X215811100Y-99923600D02*
X215811100Y-98653600D01*
X214287100Y-46583600D02*
X215811100Y-48107600D01*
X149771100Y-99923600D02*
X215811100Y-99923600D01*
X149771100Y-46583600D02*
X214287100Y-46583600D01*
D11*
X148881100Y-98653600D02*
X148881100Y-101193600D01*
X150661100Y-101193600D02*
X150661100Y-98653600D01*
X150661100Y-101193600D02*
X148881100Y-101193600D01*
X148881100Y-98653600D02*
X150661100Y-98653600D01*
X148881100Y-98653600D02*
X148881100Y-101193600D01*
X150661100Y-101193600D02*
X150661100Y-98653600D01*
X150661100Y-101193600D02*
X148881100Y-101193600D01*
X148881100Y-98653600D02*
X150661100Y-98653600D01*
X148881100Y-98653600D02*
X148881100Y-101193600D01*
X150661100Y-101193600D02*
X150661100Y-98653600D01*
X150661100Y-101193600D02*
X148881100Y-101193600D01*
X148881100Y-98653600D02*
X150661100Y-98653600D01*
X148441100Y-101253600D02*
X151101100Y-101253600D01*
X148441100Y-101193600D02*
X148441100Y-101253600D01*
X151101100Y-101193600D02*
X151101100Y-101253600D01*
X148441100Y-101193600D02*
X151101100Y-101193600D01*
X148441100Y-99923600D02*
X148441100Y-98593600D01*
X148441100Y-98593600D02*
X149771100Y-98593600D01*
X150531100Y-101503600D02*
X150531100Y-100573600D01*
X150531100Y-98343600D02*
X150531100Y-99273600D01*
X150531100Y-98343600D02*
X148371100Y-98343600D01*
X150531100Y-101503600D02*
X149071100Y-101503600D01*
X150531100Y-101503600D02*
X150531100Y-100573600D01*
X150531100Y-98343600D02*
X150531100Y-99273600D01*
X150531100Y-98343600D02*
X148371100Y-98343600D01*
X150531100Y-101503600D02*
X149071100Y-101503600D01*
X150371100Y-100803600D02*
X149171100Y-100803600D01*
X149171100Y-99043600D02*
X150371100Y-99043600D01*
X150371100Y-100803600D02*
X149171100Y-100803600D01*
X149171100Y-99043600D02*
X150371100Y-99043600D01*
X150371100Y-100803600D02*
X149171100Y-100803600D01*
X149171100Y-99043600D02*
X150371100Y-99043600D01*
X150371100Y-100803600D02*
X149171100Y-100803600D01*
X149171100Y-99043600D02*
X150371100Y-99043600D01*
X150371100Y-100803600D02*
X149171100Y-100803600D01*
X149171100Y-99043600D02*
X150371100Y-99043600D01*
X150371100Y-100803600D02*
X149171100Y-100803600D01*
X149171100Y-99043600D02*
X150371100Y-99043600D01*
X150371100Y-100803600D02*
X149171100Y-100803600D01*
X149171100Y-99043600D02*
X150371100Y-99043600D01*
X150371100Y-100803600D02*
X149171100Y-100803600D01*
X149171100Y-99043600D02*
X150371100Y-99043600D01*
X150771100Y-105423600D02*
X155271100Y-105423600D01*
X149521100Y-101423600D02*
X149521100Y-102923600D01*
X155271100Y-98923600D02*
X150771100Y-98923600D01*
X156521100Y-102923600D02*
X156521100Y-101423600D01*
X151681100Y-103333600D02*
X151681100Y-102073600D01*
X151681100Y-96513600D02*
X151681100Y-97773600D01*
X147921100Y-103333600D02*
X151681100Y-103333600D01*
X145671100Y-96513600D02*
X151681100Y-96513600D01*
X150871100Y-101023600D02*
X148671100Y-101023600D01*
X150871100Y-98823600D02*
X147871100Y-98823600D01*
X150871100Y-101023600D02*
X148671100Y-101023600D01*
X150871100Y-98823600D02*
X147871100Y-98823600D01*
D10*
X141651100Y-91803600D02*
X149771100Y-91803600D01*
X155771100Y-108043600D02*
X157891100Y-108043600D01*
X157891100Y-108043600D02*
X157891100Y-107873600D01*
X141651100Y-108043600D02*
X143771100Y-108043600D01*
X141651100Y-108043600D02*
X141651100Y-107873600D01*
X155771100Y-91803600D02*
X157891100Y-91803600D01*
X157891100Y-91803600D02*
X157891100Y-91973600D01*
D11*
X148471100Y-101123600D02*
X148471100Y-100923600D01*
X148471100Y-98823600D02*
X148071100Y-98823600D01*
X148471100Y-98723600D02*
X148471100Y-98823600D01*
X151071100Y-98723600D02*
X148471100Y-98723600D01*
X151071100Y-98923600D02*
X151071100Y-98723600D01*
X151071100Y-101123600D02*
X151071100Y-100923600D01*
X148471100Y-101123600D02*
X151071100Y-101123600D01*
D12*
X150371100Y-101523600D02*
X153171100Y-101523600D01*
X151771100Y-98923600D02*
X150371100Y-98923600D01*
X151771100Y-98923600D02*
X153171100Y-98923600D01*
X153171100Y-98923600D02*
X153171100Y-101523600D01*
X150371100Y-101523600D02*
X150371100Y-98923600D01*
X149604434Y-98780743D02*
X149556815Y-98828362D01*
X149413958Y-98875981D01*
X149318720Y-98875981D01*
X149175862Y-98828362D01*
X149080624Y-98733124D01*
X149033005Y-98637886D01*
X148985386Y-98447410D01*
X148985386Y-98304552D01*
X149033005Y-98114076D01*
X149080624Y-98018838D01*
X149175862Y-97923600D01*
X149318720Y-97875981D01*
X149413958Y-97875981D01*
X149556815Y-97923600D01*
X149604434Y-97971219D01*
X150556815Y-98875981D02*
X149985386Y-98875981D01*
X150271100Y-98875981D02*
X150271100Y-97875981D01*
X150175862Y-98018838D01*
X150080624Y-98114076D01*
X149985386Y-98161695D01*
X149604434Y-98780743D02*
X149556815Y-98828362D01*
X149413958Y-98875981D01*
X149318720Y-98875981D01*
X149175862Y-98828362D01*
X149080624Y-98733124D01*
X149033005Y-98637886D01*
X148985386Y-98447410D01*
X148985386Y-98304552D01*
X149033005Y-98114076D01*
X149080624Y-98018838D01*
X149175862Y-97923600D01*
X149318720Y-97875981D01*
X149413958Y-97875981D01*
X149556815Y-97923600D01*
X149604434Y-97971219D01*
X149985386Y-97971219D02*
X150033005Y-97923600D01*
X150128243Y-97875981D01*
X150366339Y-97875981D01*
X150461577Y-97923600D01*
X150509196Y-97971219D01*
X150556815Y-98066457D01*
X150556815Y-98161695D01*
X150509196Y-98304552D01*
X149937767Y-98875981D01*
X150556815Y-98875981D01*
X149033005Y-99125981D02*
X149033005Y-98125981D01*
X149271100Y-98125981D01*
X149413958Y-98173600D01*
X149509196Y-98268838D01*
X149556815Y-98364076D01*
X149604434Y-98554552D01*
X149604434Y-98697410D01*
X149556815Y-98887886D01*
X149509196Y-98983124D01*
X149413958Y-99078362D01*
X149271100Y-99125981D01*
X149033005Y-99125981D01*
X150556815Y-99125981D02*
X149985386Y-99125981D01*
X150271100Y-99125981D02*
X150271100Y-98125981D01*
X150175862Y-98268838D01*
X150080624Y-98364076D01*
X149985386Y-98411695D01*
X149437767Y-94375981D02*
X149437767Y-95090267D01*
X149390147Y-95233124D01*
X149294909Y-95328362D01*
X149152052Y-95375981D01*
X149056814Y-95375981D01*
X150437767Y-95375981D02*
X149866338Y-95375981D01*
X150152052Y-95375981D02*
X150152052Y-94375981D01*
X150056814Y-94518838D01*
X149961576Y-94614076D01*
X149866338Y-94661695D01*
X152037767Y-97375981D02*
X152037767Y-98090267D01*
X151990147Y-98233124D01*
X151894909Y-98328362D01*
X151752052Y-98375981D01*
X151656814Y-98375981D01*
X152513957Y-98375981D02*
X152513957Y-97375981D01*
X152894910Y-97375981D01*
X152990148Y-97423600D01*
X153037767Y-97471219D01*
X153085386Y-97566457D01*
X153085386Y-97709314D01*
X153037767Y-97804552D01*
X152990148Y-97852171D01*
X152894910Y-97899790D01*
X152513957Y-97899790D01*
X154037767Y-98375981D02*
X153466338Y-98375981D01*
X153752052Y-98375981D02*
X153752052Y-97375981D01*
X153656814Y-97518838D01*
X153561576Y-97614076D01*
X153466338Y-97661695D01*
X152037767Y-97375981D02*
X152037767Y-98090267D01*
X151990147Y-98233124D01*
X151894909Y-98328362D01*
X151752052Y-98375981D01*
X151656814Y-98375981D01*
X152513957Y-98375981D02*
X152513957Y-97375981D01*
X152894910Y-97375981D01*
X152990148Y-97423600D01*
X153037767Y-97471219D01*
X153085386Y-97566457D01*
X153085386Y-97709314D01*
X153037767Y-97804552D01*
X152990148Y-97852171D01*
X152894910Y-97899790D01*
X152513957Y-97899790D01*
X153466338Y-97471219D02*
X153513957Y-97423600D01*
X153609195Y-97375981D01*
X153847291Y-97375981D01*
X153942529Y-97423600D01*
X153990148Y-97471219D01*
X154037767Y-97566457D01*
X154037767Y-97661695D01*
X153990148Y-97804552D01*
X153418719Y-98375981D01*
X154037767Y-98375981D01*
X152037767Y-97375981D02*
X152037767Y-98090267D01*
X151990147Y-98233124D01*
X151894909Y-98328362D01*
X151752052Y-98375981D01*
X151656814Y-98375981D01*
X152513957Y-98375981D02*
X152513957Y-97375981D01*
X152894910Y-97375981D01*
X152990148Y-97423600D01*
X153037767Y-97471219D01*
X153085386Y-97566457D01*
X153085386Y-97709314D01*
X153037767Y-97804552D01*
X152990148Y-97852171D01*
X152894910Y-97899790D01*
X152513957Y-97899790D01*
X153418719Y-97375981D02*
X154037767Y-97375981D01*
X153704433Y-97756933D01*
X153847291Y-97756933D01*
X153942529Y-97804552D01*
X153990148Y-97852171D01*
X154037767Y-97947410D01*
X154037767Y-98185505D01*
X153990148Y-98280743D01*
X153942529Y-98328362D01*
X153847291Y-98375981D01*
X153561576Y-98375981D01*
X153466338Y-98328362D01*
X153418719Y-98280743D01*
X152037767Y-97375981D02*
X152037767Y-98090267D01*
X151990147Y-98233124D01*
X151894909Y-98328362D01*
X151752052Y-98375981D01*
X151656814Y-98375981D01*
X152513957Y-98375981D02*
X152513957Y-97375981D01*
X152894910Y-97375981D01*
X152990148Y-97423600D01*
X153037767Y-97471219D01*
X153085386Y-97566457D01*
X153085386Y-97709314D01*
X153037767Y-97804552D01*
X152990148Y-97852171D01*
X152894910Y-97899790D01*
X152513957Y-97899790D01*
X153942529Y-97709314D02*
X153942529Y-98375981D01*
X153704433Y-97328362D02*
X153466338Y-98042648D01*
X154085386Y-98042648D01*
X149937767Y-97315981D02*
X149937767Y-98030267D01*
X149890147Y-98173124D01*
X149794909Y-98268362D01*
X149652052Y-98315981D01*
X149556814Y-98315981D01*
X150413957Y-98315981D02*
X150413957Y-97315981D01*
X150794910Y-97315981D01*
X150890148Y-97363600D01*
X150937767Y-97411219D01*
X150985386Y-97506457D01*
X150985386Y-97649314D01*
X150937767Y-97744552D01*
X150890148Y-97792171D01*
X150794910Y-97839790D01*
X150413957Y-97839790D01*
X151890148Y-97315981D02*
X151413957Y-97315981D01*
X151366338Y-97792171D01*
X151413957Y-97744552D01*
X151509195Y-97696933D01*
X151747291Y-97696933D01*
X151842529Y-97744552D01*
X151890148Y-97792171D01*
X151937767Y-97887410D01*
X151937767Y-98125505D01*
X151890148Y-98220743D01*
X151842529Y-98268362D01*
X151747291Y-98315981D01*
X151509195Y-98315981D01*
X151413957Y-98268362D01*
X151366338Y-98220743D01*
X151477767Y-45019981D02*
X151477767Y-45734267D01*
X151430147Y-45877124D01*
X151334909Y-45972362D01*
X151192052Y-46019981D01*
X151096814Y-46019981D01*
X151953957Y-46019981D02*
X151953957Y-45019981D01*
X152334910Y-45019981D01*
X152430148Y-45067600D01*
X152477767Y-45115219D01*
X152525386Y-45210457D01*
X152525386Y-45353314D01*
X152477767Y-45448552D01*
X152430148Y-45496171D01*
X152334910Y-45543790D01*
X151953957Y-45543790D01*
X153382529Y-45019981D02*
X153192052Y-45019981D01*
X153096814Y-45067600D01*
X153049195Y-45115219D01*
X152953957Y-45258076D01*
X152906338Y-45448552D01*
X152906338Y-45829505D01*
X152953957Y-45924743D01*
X153001576Y-45972362D01*
X153096814Y-46019981D01*
X153287291Y-46019981D01*
X153382529Y-45972362D01*
X153430148Y-45924743D01*
X153477767Y-45829505D01*
X153477767Y-45591410D01*
X153430148Y-45496171D01*
X153382529Y-45448552D01*
X153287291Y-45400933D01*
X153096814Y-45400933D01*
X153001576Y-45448552D01*
X152953957Y-45496171D01*
X152906338Y-45591410D01*
X212255100Y-68276743D02*
X212302719Y-68324362D01*
X212255100Y-68371981D01*
X212207481Y-68324362D01*
X212255100Y-68276743D01*
X212255100Y-68371981D01*
X151003481Y-100756933D02*
X151717767Y-100756933D01*
X151860624Y-100804553D01*
X151955862Y-100899791D01*
X152003481Y-101042648D01*
X152003481Y-101137886D01*
X152003481Y-100280743D02*
X151003481Y-100280743D01*
X151003481Y-99899790D01*
X151051100Y-99804552D01*
X151098719Y-99756933D01*
X151193957Y-99709314D01*
X151336814Y-99709314D01*
X151432052Y-99756933D01*
X151479671Y-99804552D01*
X151527290Y-99899790D01*
X151527290Y-100280743D01*
X151003481Y-99375981D02*
X151003481Y-98709314D01*
X152003481Y-99137886D01*
X151003481Y-100756933D02*
X151717767Y-100756933D01*
X151860624Y-100804553D01*
X151955862Y-100899791D01*
X152003481Y-101042648D01*
X152003481Y-101137886D01*
X152003481Y-100280743D02*
X151003481Y-100280743D01*
X151003481Y-99899790D01*
X151051100Y-99804552D01*
X151098719Y-99756933D01*
X151193957Y-99709314D01*
X151336814Y-99709314D01*
X151432052Y-99756933D01*
X151479671Y-99804552D01*
X151527290Y-99899790D01*
X151527290Y-100280743D01*
X151432052Y-99137886D02*
X151384433Y-99233124D01*
X151336814Y-99280743D01*
X151241576Y-99328362D01*
X151193957Y-99328362D01*
X151098719Y-99280743D01*
X151051100Y-99233124D01*
X151003481Y-99137886D01*
X151003481Y-98947409D01*
X151051100Y-98852171D01*
X151098719Y-98804552D01*
X151193957Y-98756933D01*
X151241576Y-98756933D01*
X151336814Y-98804552D01*
X151384433Y-98852171D01*
X151432052Y-98947409D01*
X151432052Y-99137886D01*
X151479671Y-99233124D01*
X151527290Y-99280743D01*
X151622529Y-99328362D01*
X151813005Y-99328362D01*
X151908243Y-99280743D01*
X151955862Y-99233124D01*
X152003481Y-99137886D01*
X152003481Y-98947409D01*
X151955862Y-98852171D01*
X151908243Y-98804552D01*
X151813005Y-98756933D01*
X151622529Y-98756933D01*
X151527290Y-98804552D01*
X151479671Y-98852171D01*
X151432052Y-98947409D01*
X151003481Y-100756933D02*
X151717767Y-100756933D01*
X151860624Y-100804553D01*
X151955862Y-100899791D01*
X152003481Y-101042648D01*
X152003481Y-101137886D01*
X152003481Y-100280743D02*
X151003481Y-100280743D01*
X151003481Y-99899790D01*
X151051100Y-99804552D01*
X151098719Y-99756933D01*
X151193957Y-99709314D01*
X151336814Y-99709314D01*
X151432052Y-99756933D01*
X151479671Y-99804552D01*
X151527290Y-99899790D01*
X151527290Y-100280743D01*
X152003481Y-99233124D02*
X152003481Y-99042648D01*
X151955862Y-98947409D01*
X151908243Y-98899790D01*
X151765386Y-98804552D01*
X151574910Y-98756933D01*
X151193957Y-98756933D01*
X151098719Y-98804552D01*
X151051100Y-98852171D01*
X151003481Y-98947409D01*
X151003481Y-99137886D01*
X151051100Y-99233124D01*
X151098719Y-99280743D01*
X151193957Y-99328362D01*
X151432052Y-99328362D01*
X151527290Y-99280743D01*
X151574910Y-99233124D01*
X151622529Y-99137886D01*
X151622529Y-98947409D01*
X151574910Y-98852171D01*
X151527290Y-98804552D01*
X151432052Y-98756933D01*
X148461577Y-97045981D02*
X148461577Y-97760267D01*
X148413957Y-97903124D01*
X148318719Y-97998362D01*
X148175862Y-98045981D01*
X148080624Y-98045981D01*
X148937767Y-98045981D02*
X148937767Y-97045981D01*
X149318720Y-97045981D01*
X149413958Y-97093600D01*
X149461577Y-97141219D01*
X149509196Y-97236457D01*
X149509196Y-97379314D01*
X149461577Y-97474552D01*
X149413958Y-97522171D01*
X149318720Y-97569790D01*
X148937767Y-97569790D01*
X150461577Y-98045981D02*
X149890148Y-98045981D01*
X150175862Y-98045981D02*
X150175862Y-97045981D01*
X150080624Y-97188838D01*
X149985386Y-97284076D01*
X149890148Y-97331695D01*
X151080624Y-97045981D02*
X151175863Y-97045981D01*
X151271101Y-97093600D01*
X151318720Y-97141219D01*
X151366339Y-97236457D01*
X151413958Y-97426933D01*
X151413958Y-97665029D01*
X151366339Y-97855505D01*
X151318720Y-97950743D01*
X151271101Y-97998362D01*
X151175863Y-98045981D01*
X151080624Y-98045981D01*
X150985386Y-97998362D01*
X150937767Y-97950743D01*
X150890148Y-97855505D01*
X150842529Y-97665029D01*
X150842529Y-97426933D01*
X150890148Y-97236457D01*
X150937767Y-97141219D01*
X150985386Y-97093600D01*
X151080624Y-97045981D01*
X149675862Y-97971219D02*
X149580624Y-97923600D01*
X149485386Y-97828362D01*
X149342529Y-97685505D01*
X149247290Y-97637886D01*
X149152052Y-97637886D01*
X149199671Y-97875981D02*
X149104433Y-97828362D01*
X149009195Y-97733124D01*
X148961576Y-97542648D01*
X148961576Y-97209314D01*
X149009195Y-97018838D01*
X149104433Y-96923600D01*
X149199671Y-96875981D01*
X149390148Y-96875981D01*
X149485386Y-96923600D01*
X149580624Y-97018838D01*
X149628243Y-97209314D01*
X149628243Y-97542648D01*
X149580624Y-97733124D01*
X149485386Y-97828362D01*
X149390148Y-97875981D01*
X149199671Y-97875981D01*
X150580624Y-97875981D02*
X150009195Y-97875981D01*
X150294909Y-97875981D02*
X150294909Y-96875981D01*
X150199671Y-97018838D01*
X150104433Y-97114076D01*
X150009195Y-97161695D01*
X149675862Y-97971219D02*
X149580624Y-97923600D01*
X149485386Y-97828362D01*
X149342529Y-97685505D01*
X149247290Y-97637886D01*
X149152052Y-97637886D01*
X149199671Y-97875981D02*
X149104433Y-97828362D01*
X149009195Y-97733124D01*
X148961576Y-97542648D01*
X148961576Y-97209314D01*
X149009195Y-97018838D01*
X149104433Y-96923600D01*
X149199671Y-96875981D01*
X149390148Y-96875981D01*
X149485386Y-96923600D01*
X149580624Y-97018838D01*
X149628243Y-97209314D01*
X149628243Y-97542648D01*
X149580624Y-97733124D01*
X149485386Y-97828362D01*
X149390148Y-97875981D01*
X149199671Y-97875981D01*
X150009195Y-96971219D02*
X150056814Y-96923600D01*
X150152052Y-96875981D01*
X150390148Y-96875981D01*
X150485386Y-96923600D01*
X150533005Y-96971219D01*
X150580624Y-97066457D01*
X150580624Y-97161695D01*
X150533005Y-97304552D01*
X149961576Y-97875981D01*
X150580624Y-97875981D01*
X149604434Y-98725981D02*
X149271100Y-98249790D01*
X149033005Y-98725981D02*
X149033005Y-97725981D01*
X149413958Y-97725981D01*
X149509196Y-97773600D01*
X149556815Y-97821219D01*
X149604434Y-97916457D01*
X149604434Y-98059314D01*
X149556815Y-98154552D01*
X149509196Y-98202171D01*
X149413958Y-98249790D01*
X149033005Y-98249790D01*
X150556815Y-98725981D02*
X149985386Y-98725981D01*
X150271100Y-98725981D02*
X150271100Y-97725981D01*
X150175862Y-97868838D01*
X150080624Y-97964076D01*
X149985386Y-98011695D01*
X149604434Y-98725981D02*
X149271100Y-98249790D01*
X149033005Y-98725981D02*
X149033005Y-97725981D01*
X149413958Y-97725981D01*
X149509196Y-97773600D01*
X149556815Y-97821219D01*
X149604434Y-97916457D01*
X149604434Y-98059314D01*
X149556815Y-98154552D01*
X149509196Y-98202171D01*
X149413958Y-98249790D01*
X149033005Y-98249790D01*
X149985386Y-97821219D02*
X150033005Y-97773600D01*
X150128243Y-97725981D01*
X150366339Y-97725981D01*
X150461577Y-97773600D01*
X150509196Y-97821219D01*
X150556815Y-97916457D01*
X150556815Y-98011695D01*
X150509196Y-98154552D01*
X149937767Y-98725981D01*
X150556815Y-98725981D01*
X149604434Y-98725981D02*
X149271100Y-98249790D01*
X149033005Y-98725981D02*
X149033005Y-97725981D01*
X149413958Y-97725981D01*
X149509196Y-97773600D01*
X149556815Y-97821219D01*
X149604434Y-97916457D01*
X149604434Y-98059314D01*
X149556815Y-98154552D01*
X149509196Y-98202171D01*
X149413958Y-98249790D01*
X149033005Y-98249790D01*
X149937767Y-97725981D02*
X150556815Y-97725981D01*
X150223481Y-98106933D01*
X150366339Y-98106933D01*
X150461577Y-98154552D01*
X150509196Y-98202171D01*
X150556815Y-98297410D01*
X150556815Y-98535505D01*
X150509196Y-98630743D01*
X150461577Y-98678362D01*
X150366339Y-98725981D01*
X150080624Y-98725981D01*
X149985386Y-98678362D01*
X149937767Y-98630743D01*
X149604434Y-98725981D02*
X149271100Y-98249790D01*
X149033005Y-98725981D02*
X149033005Y-97725981D01*
X149413958Y-97725981D01*
X149509196Y-97773600D01*
X149556815Y-97821219D01*
X149604434Y-97916457D01*
X149604434Y-98059314D01*
X149556815Y-98154552D01*
X149509196Y-98202171D01*
X149413958Y-98249790D01*
X149033005Y-98249790D01*
X150461577Y-98059314D02*
X150461577Y-98725981D01*
X150223481Y-97678362D02*
X149985386Y-98392648D01*
X150604434Y-98392648D01*
X149604434Y-98725981D02*
X149271100Y-98249790D01*
X149033005Y-98725981D02*
X149033005Y-97725981D01*
X149413958Y-97725981D01*
X149509196Y-97773600D01*
X149556815Y-97821219D01*
X149604434Y-97916457D01*
X149604434Y-98059314D01*
X149556815Y-98154552D01*
X149509196Y-98202171D01*
X149413958Y-98249790D01*
X149033005Y-98249790D01*
X150509196Y-97725981D02*
X150033005Y-97725981D01*
X149985386Y-98202171D01*
X150033005Y-98154552D01*
X150128243Y-98106933D01*
X150366339Y-98106933D01*
X150461577Y-98154552D01*
X150509196Y-98202171D01*
X150556815Y-98297410D01*
X150556815Y-98535505D01*
X150509196Y-98630743D01*
X150461577Y-98678362D01*
X150366339Y-98725981D01*
X150128243Y-98725981D01*
X150033005Y-98678362D01*
X149985386Y-98630743D01*
X149604434Y-98725981D02*
X149271100Y-98249790D01*
X149033005Y-98725981D02*
X149033005Y-97725981D01*
X149413958Y-97725981D01*
X149509196Y-97773600D01*
X149556815Y-97821219D01*
X149604434Y-97916457D01*
X149604434Y-98059314D01*
X149556815Y-98154552D01*
X149509196Y-98202171D01*
X149413958Y-98249790D01*
X149033005Y-98249790D01*
X150461577Y-97725981D02*
X150271100Y-97725981D01*
X150175862Y-97773600D01*
X150128243Y-97821219D01*
X150033005Y-97964076D01*
X149985386Y-98154552D01*
X149985386Y-98535505D01*
X150033005Y-98630743D01*
X150080624Y-98678362D01*
X150175862Y-98725981D01*
X150366339Y-98725981D01*
X150461577Y-98678362D01*
X150509196Y-98630743D01*
X150556815Y-98535505D01*
X150556815Y-98297410D01*
X150509196Y-98202171D01*
X150461577Y-98154552D01*
X150366339Y-98106933D01*
X150175862Y-98106933D01*
X150080624Y-98154552D01*
X150033005Y-98202171D01*
X149985386Y-98297410D01*
X149604434Y-98725981D02*
X149271100Y-98249790D01*
X149033005Y-98725981D02*
X149033005Y-97725981D01*
X149413958Y-97725981D01*
X149509196Y-97773600D01*
X149556815Y-97821219D01*
X149604434Y-97916457D01*
X149604434Y-98059314D01*
X149556815Y-98154552D01*
X149509196Y-98202171D01*
X149413958Y-98249790D01*
X149033005Y-98249790D01*
X149937767Y-97725981D02*
X150604434Y-97725981D01*
X150175862Y-98725981D01*
X149604434Y-98725981D02*
X149271100Y-98249790D01*
X149033005Y-98725981D02*
X149033005Y-97725981D01*
X149413958Y-97725981D01*
X149509196Y-97773600D01*
X149556815Y-97821219D01*
X149604434Y-97916457D01*
X149604434Y-98059314D01*
X149556815Y-98154552D01*
X149509196Y-98202171D01*
X149413958Y-98249790D01*
X149033005Y-98249790D01*
X150175862Y-98154552D02*
X150080624Y-98106933D01*
X150033005Y-98059314D01*
X149985386Y-97964076D01*
X149985386Y-97916457D01*
X150033005Y-97821219D01*
X150080624Y-97773600D01*
X150175862Y-97725981D01*
X150366339Y-97725981D01*
X150461577Y-97773600D01*
X150509196Y-97821219D01*
X150556815Y-97916457D01*
X150556815Y-97964076D01*
X150509196Y-98059314D01*
X150461577Y-98106933D01*
X150366339Y-98154552D01*
X150175862Y-98154552D01*
X150080624Y-98202171D01*
X150033005Y-98249790D01*
X149985386Y-98345029D01*
X149985386Y-98535505D01*
X150033005Y-98630743D01*
X150080624Y-98678362D01*
X150175862Y-98725981D01*
X150366339Y-98725981D01*
X150461577Y-98678362D01*
X150509196Y-98630743D01*
X150556815Y-98535505D01*
X150556815Y-98345029D01*
X150509196Y-98249790D01*
X150461577Y-98202171D01*
X150366339Y-98154552D01*
X152259195Y-98328362D02*
X152402052Y-98375981D01*
X152640148Y-98375981D01*
X152735386Y-98328362D01*
X152783005Y-98280743D01*
X152830624Y-98185505D01*
X152830624Y-98090267D01*
X152783005Y-97995029D01*
X152735386Y-97947410D01*
X152640148Y-97899790D01*
X152449671Y-97852171D01*
X152354433Y-97804552D01*
X152306814Y-97756933D01*
X152259195Y-97661695D01*
X152259195Y-97566457D01*
X152306814Y-97471219D01*
X152354433Y-97423600D01*
X152449671Y-97375981D01*
X152687767Y-97375981D01*
X152830624Y-97423600D01*
X153783005Y-98375981D02*
X153211576Y-98375981D01*
X153497290Y-98375981D02*
X153497290Y-97375981D01*
X153402052Y-97518838D01*
X153306814Y-97614076D01*
X153211576Y-97661695D01*
X149009195Y-94875981D02*
X149009195Y-95685505D01*
X149056814Y-95780743D01*
X149104433Y-95828362D01*
X149199671Y-95875981D01*
X149390148Y-95875981D01*
X149485386Y-95828362D01*
X149533005Y-95780743D01*
X149580624Y-95685505D01*
X149580624Y-94875981D01*
X150580624Y-95875981D02*
X150009195Y-95875981D01*
X150294909Y-95875981D02*
X150294909Y-94875981D01*
X150199671Y-95018838D01*
X150104433Y-95114076D01*
X150009195Y-95161695D01*
X149009195Y-97375981D02*
X149009195Y-98185505D01*
X149056814Y-98280743D01*
X149104433Y-98328362D01*
X149199671Y-98375981D01*
X149390148Y-98375981D01*
X149485386Y-98328362D01*
X149533005Y-98280743D01*
X149580624Y-98185505D01*
X149580624Y-97375981D01*
X150009195Y-97471219D02*
X150056814Y-97423600D01*
X150152052Y-97375981D01*
X150390148Y-97375981D01*
X150485386Y-97423600D01*
X150533005Y-97471219D01*
X150580624Y-97566457D01*
X150580624Y-97661695D01*
X150533005Y-97804552D01*
X149961576Y-98375981D01*
X150580624Y-98375981D01*
X149009195Y-97375981D02*
X149009195Y-98185505D01*
X149056814Y-98280743D01*
X149104433Y-98328362D01*
X149199671Y-98375981D01*
X149390148Y-98375981D01*
X149485386Y-98328362D01*
X149533005Y-98280743D01*
X149580624Y-98185505D01*
X149580624Y-97375981D01*
X149961576Y-97375981D02*
X150580624Y-97375981D01*
X150247290Y-97756933D01*
X150390148Y-97756933D01*
X150485386Y-97804552D01*
X150533005Y-97852171D01*
X150580624Y-97947410D01*
X150580624Y-98185505D01*
X150533005Y-98280743D01*
X150485386Y-98328362D01*
X150390148Y-98375981D01*
X150104433Y-98375981D01*
X150009195Y-98328362D01*
X149961576Y-98280743D01*
X142009195Y-89875981D02*
X142009195Y-90685505D01*
X142056814Y-90780743D01*
X142104433Y-90828362D01*
X142199671Y-90875981D01*
X142390148Y-90875981D01*
X142485386Y-90828362D01*
X142533005Y-90780743D01*
X142580624Y-90685505D01*
X142580624Y-89875981D01*
X143485386Y-90209314D02*
X143485386Y-90875981D01*
X143247290Y-89828362D02*
X143009195Y-90542648D01*
X143628243Y-90542648D01*
X149009195Y-96835981D02*
X149009195Y-97645505D01*
X149056814Y-97740743D01*
X149104433Y-97788362D01*
X149199671Y-97835981D01*
X149390148Y-97835981D01*
X149485386Y-97788362D01*
X149533005Y-97740743D01*
X149580624Y-97645505D01*
X149580624Y-96835981D01*
X150533005Y-96835981D02*
X150056814Y-96835981D01*
X150009195Y-97312171D01*
X150056814Y-97264552D01*
X150152052Y-97216933D01*
X150390148Y-97216933D01*
X150485386Y-97264552D01*
X150533005Y-97312171D01*
X150580624Y-97407410D01*
X150580624Y-97645505D01*
X150533005Y-97740743D01*
X150485386Y-97788362D01*
X150390148Y-97835981D01*
X150152052Y-97835981D01*
X150056814Y-97788362D01*
X150009195Y-97740743D01*
X150715815Y-96943171D02*
X151715815Y-98443171D01*
X151715815Y-96943171D02*
X150715815Y-98443171D01*
X153072957Y-98443171D02*
X152215814Y-98443171D01*
X152644386Y-98443171D02*
X152644386Y-96943171D01*
X152501529Y-97157457D01*
X152358671Y-97300314D01*
X152215814Y-97371743D01*
M02*
