G04 #@! TF.FileFunction,Copper,L2,Bot,Signal*
%FSLAX46Y46*%
G04 Gerber Fmt 4.6, Leading zero omitted, Abs format (unit mm)*
G04 Created by KiCad (PCBNEW 4.0.7) date Friday, April 27, 2018 'AMt' 09:02:40 AM*
%MOMM*%
%LPD*%
G01*
G04 APERTURE LIST*
%ADD10C,0.100000*%
%ADD11C,2.200000*%
%ADD12C,2.000000*%
%ADD13R,1.350000X1.350000*%
%ADD14O,1.350000X1.350000*%
%ADD15O,1.727200X1.727200*%
%ADD16R,1.700000X1.700000*%
%ADD17C,0.600000*%
%ADD18C,0.250000*%
G04 APERTURE END LIST*
D10*
D11*
X147231100Y-102463600D03*
X147231100Y-97383600D03*
X152311100Y-97383600D03*
X152311100Y-102463600D03*
D12*
X149771100Y-99923600D03*
D13*
X149771100Y-99923600D03*
D14*
X149771100Y-101923600D03*
X149771100Y-103923600D03*
X149771100Y-105923600D03*
D13*
X149771100Y-99923600D03*
D14*
X149771100Y-101923600D03*
X149771100Y-103923600D03*
X149771100Y-105923600D03*
D13*
X149771100Y-99923600D03*
D14*
X149771100Y-101923600D03*
X149771100Y-103923600D03*
X149771100Y-105923600D03*
D13*
X149771100Y-99923600D03*
D14*
X149771100Y-101923600D03*
X149771100Y-103923600D03*
X149771100Y-105923600D03*
D13*
X149771100Y-99923600D03*
D14*
X151771100Y-99923600D03*
X149771100Y-101923600D03*
X151771100Y-101923600D03*
X149771100Y-103923600D03*
X151771100Y-103923600D03*
D15*
X213398100Y-74523600D03*
X215938100Y-74523600D03*
X215938100Y-71983600D03*
X213398100Y-71983600D03*
X215938100Y-69443600D03*
X200571100Y-97383600D03*
X195491100Y-97383600D03*
X192951100Y-97383600D03*
X190411100Y-97383600D03*
X187871100Y-97383600D03*
X185331100Y-97383600D03*
X182791100Y-97383600D03*
X180251100Y-97383600D03*
X213271100Y-49123600D03*
X210731100Y-49123600D03*
X208191100Y-49123600D03*
X205651100Y-49123600D03*
X203111100Y-49123600D03*
X200571100Y-49123600D03*
X198031100Y-49123600D03*
X195491100Y-49123600D03*
X176187100Y-49123600D03*
X191427100Y-49123600D03*
X188887100Y-49123600D03*
X186347100Y-49123600D03*
X168567100Y-49123600D03*
X171107100Y-49123600D03*
X173647100Y-49123600D03*
X178727100Y-49123600D03*
X181267100Y-49123600D03*
X183807100Y-49123600D03*
X177711100Y-97383600D03*
X203111100Y-97383600D03*
X205651100Y-97383600D03*
X208191100Y-97383600D03*
X210731100Y-97383600D03*
X213271100Y-97383600D03*
X213398100Y-69443600D03*
D16*
X149771100Y-99923600D03*
D12*
X149771100Y-104423600D03*
X149771100Y-99923600D03*
X156271100Y-104423600D03*
X156271100Y-99923600D03*
D17*
X165100000Y-102870000D03*
X156210000Y-85090000D03*
X152400000Y-93980000D03*
D18*
X165100000Y-102870000D02*
X167640000Y-100330000D01*
X167640000Y-100330000D02*
X182880000Y-100330000D01*
X182880000Y-100330000D02*
X184150000Y-99060000D01*
X184150000Y-99060000D02*
X189230000Y-99060000D01*
X189230000Y-99060000D02*
X190500000Y-97790000D01*
X190500000Y-97790000D02*
X190411100Y-97383600D01*
X149771100Y-105923600D02*
X149860000Y-105410000D01*
X149860000Y-105410000D02*
X151130000Y-105410000D01*
X151130000Y-105410000D02*
X152400000Y-106680000D01*
X152400000Y-106680000D02*
X157480000Y-106680000D01*
X157480000Y-106680000D02*
X160020000Y-104140000D01*
X160020000Y-104140000D02*
X166370000Y-104140000D01*
X166370000Y-104140000D02*
X168910000Y-101600000D01*
X168910000Y-101600000D02*
X184150000Y-101600000D01*
X184150000Y-101600000D02*
X185420000Y-100330000D01*
X185420000Y-100330000D02*
X190500000Y-100330000D01*
X190500000Y-100330000D02*
X191770000Y-99060000D01*
X191770000Y-99060000D02*
X196850000Y-99060000D01*
X196850000Y-99060000D02*
X198120000Y-97790000D01*
X198120000Y-97790000D02*
X200660000Y-97790000D01*
X200660000Y-97790000D02*
X200571100Y-97383600D01*
X156210000Y-85090000D02*
X191770000Y-49530000D01*
X191770000Y-49530000D02*
X191427100Y-49123600D01*
X156271100Y-99923600D02*
X156210000Y-100330000D01*
X156210000Y-100330000D02*
X165100000Y-100330000D01*
X165100000Y-100330000D02*
X166370000Y-99060000D01*
X166370000Y-99060000D02*
X181610000Y-99060000D01*
X181610000Y-99060000D02*
X182880000Y-97790000D01*
X182880000Y-97790000D02*
X182791100Y-97383600D01*
X152400000Y-93980000D02*
X195580000Y-50800000D01*
X195580000Y-50800000D02*
X196850000Y-50800000D01*
X196850000Y-50800000D02*
X198120000Y-49530000D01*
X198120000Y-49530000D02*
X198031100Y-49123600D01*
M02*
