G04 #@! TF.FileFunction,Copper,L1,Top,Signal*
%FSLAX46Y46*%
G04 Gerber Fmt 4.6, Leading zero omitted, Abs format (unit mm)*
G04 Created by KiCad (PCBNEW 4.0.7) date Friday, April 27, 2018 'AMt' 09:02:40 AM*
%MOMM*%
%LPD*%
G01*
G04 APERTURE LIST*
%ADD10C,0.100000*%
%ADD11R,1.000000X1.250000*%
%ADD12R,0.800000X0.800000*%
%ADD13C,2.200000*%
%ADD14C,2.000000*%
%ADD15R,1.350000X1.350000*%
%ADD16O,1.350000X1.350000*%
%ADD17O,1.727200X1.727200*%
%ADD18R,1.270000X0.970000*%
%ADD19R,1.700000X1.700000*%
%ADD20R,0.900000X0.800000*%
%ADD21R,0.700000X1.300000*%
%ADD22R,2.000000X3.800000*%
%ADD23R,2.000000X1.500000*%
%ADD24R,0.800000X0.300000*%
%ADD25R,2.000000X1.000000*%
%ADD26R,0.750000X0.250000*%
%ADD27R,1.100000X2.200000*%
%ADD28R,1.200000X1.500000*%
%ADD29C,0.600000*%
%ADD30C,0.250000*%
G04 APERTURE END LIST*
D10*
D11*
X148771100Y-99923600D03*
X150771100Y-99923600D03*
X148771100Y-99923600D03*
X150771100Y-99923600D03*
D12*
X150571100Y-99923600D03*
X148971100Y-99923600D03*
D13*
X147231100Y-102463600D03*
X147231100Y-97383600D03*
X152311100Y-97383600D03*
X152311100Y-102463600D03*
D14*
X149771100Y-99923600D03*
D15*
X149771100Y-99923600D03*
D16*
X149771100Y-101923600D03*
X149771100Y-103923600D03*
X149771100Y-105923600D03*
D15*
X149771100Y-99923600D03*
D16*
X149771100Y-101923600D03*
X149771100Y-103923600D03*
X149771100Y-105923600D03*
D15*
X149771100Y-99923600D03*
D16*
X149771100Y-101923600D03*
X149771100Y-103923600D03*
X149771100Y-105923600D03*
D15*
X149771100Y-99923600D03*
D16*
X149771100Y-101923600D03*
X149771100Y-103923600D03*
X149771100Y-105923600D03*
D15*
X149771100Y-99923600D03*
D16*
X151771100Y-99923600D03*
X149771100Y-101923600D03*
X151771100Y-101923600D03*
X149771100Y-103923600D03*
X151771100Y-103923600D03*
D17*
X213398100Y-74523600D03*
X215938100Y-74523600D03*
X215938100Y-71983600D03*
X213398100Y-71983600D03*
X215938100Y-69443600D03*
X200571100Y-97383600D03*
X195491100Y-97383600D03*
X192951100Y-97383600D03*
X190411100Y-97383600D03*
X187871100Y-97383600D03*
X185331100Y-97383600D03*
X182791100Y-97383600D03*
X180251100Y-97383600D03*
X213271100Y-49123600D03*
X210731100Y-49123600D03*
X208191100Y-49123600D03*
X205651100Y-49123600D03*
X203111100Y-49123600D03*
X200571100Y-49123600D03*
X198031100Y-49123600D03*
X195491100Y-49123600D03*
X176187100Y-49123600D03*
X191427100Y-49123600D03*
X188887100Y-49123600D03*
X186347100Y-49123600D03*
X168567100Y-49123600D03*
X171107100Y-49123600D03*
X173647100Y-49123600D03*
X178727100Y-49123600D03*
X181267100Y-49123600D03*
X183807100Y-49123600D03*
X177711100Y-97383600D03*
X203111100Y-97383600D03*
X205651100Y-97383600D03*
X208191100Y-97383600D03*
X210731100Y-97383600D03*
X213271100Y-97383600D03*
X213398100Y-69443600D03*
D18*
X149771100Y-99283600D03*
X149771100Y-100563600D03*
X149771100Y-99283600D03*
X149771100Y-100563600D03*
X149771100Y-99283600D03*
X149771100Y-100563600D03*
D19*
X149771100Y-99923600D03*
D20*
X148771100Y-98973600D03*
X148771100Y-100873600D03*
X150771100Y-99923600D03*
X148771100Y-98973600D03*
X148771100Y-100873600D03*
X150771100Y-99923600D03*
D21*
X148821100Y-99923600D03*
X150721100Y-99923600D03*
X148821100Y-99923600D03*
X150721100Y-99923600D03*
X148821100Y-99923600D03*
X150721100Y-99923600D03*
X148821100Y-99923600D03*
X150721100Y-99923600D03*
X148821100Y-99923600D03*
X150721100Y-99923600D03*
X148821100Y-99923600D03*
X150721100Y-99923600D03*
X148821100Y-99923600D03*
X150721100Y-99923600D03*
X148821100Y-99923600D03*
X150721100Y-99923600D03*
D14*
X149771100Y-104423600D03*
X149771100Y-99923600D03*
X156271100Y-104423600D03*
X156271100Y-99923600D03*
D22*
X152921100Y-99923600D03*
D23*
X146621100Y-99923600D03*
X146621100Y-102223600D03*
X146621100Y-97623600D03*
D24*
X148221100Y-99173600D03*
X148221100Y-99673600D03*
X148221100Y-100173600D03*
X148221100Y-100673600D03*
X151321100Y-100673600D03*
X151321100Y-100173600D03*
X151321100Y-99673600D03*
X151321100Y-99173600D03*
X148221100Y-99173600D03*
X148221100Y-99673600D03*
X148221100Y-100173600D03*
X148221100Y-100673600D03*
X151321100Y-100673600D03*
X151321100Y-100173600D03*
X151321100Y-99673600D03*
X151321100Y-99173600D03*
D25*
X141771100Y-92923600D03*
X141771100Y-94923600D03*
X141771100Y-96923600D03*
X141771100Y-98923600D03*
X141771100Y-100923600D03*
X141771100Y-102923600D03*
X141771100Y-104923600D03*
X141771100Y-106923600D03*
X157771100Y-106923600D03*
X157771100Y-104923600D03*
X157771100Y-102923600D03*
X157771100Y-100923600D03*
X157771100Y-98923600D03*
X157771100Y-96923600D03*
X157771100Y-94923600D03*
X157771100Y-92923600D03*
D26*
X148221100Y-99173600D03*
X148221100Y-99673600D03*
X148221100Y-100173600D03*
X148221100Y-100673600D03*
X151321100Y-100673600D03*
X151321100Y-100173600D03*
X151321100Y-99673600D03*
X151321100Y-99173600D03*
D27*
X150321100Y-99923600D03*
X153221100Y-99923600D03*
D28*
X151771100Y-101673600D03*
D29*
X165100000Y-102870000D03*
X156210000Y-85090000D03*
X152400000Y-93980000D03*
D30*
X190411100Y-97383600D02*
X190500000Y-97790000D01*
X190500000Y-97790000D02*
X189230000Y-96520000D01*
X189230000Y-96520000D02*
X189230000Y-95250000D01*
X189230000Y-95250000D02*
X176530000Y-82550000D01*
X176530000Y-82550000D02*
X176530000Y-49530000D01*
X176530000Y-49530000D02*
X176187100Y-49123600D01*
X153221100Y-99923600D02*
X153670000Y-100330000D01*
X153670000Y-100330000D02*
X154940000Y-100330000D01*
X154940000Y-100330000D02*
X154940000Y-97790000D01*
X154940000Y-97790000D02*
X160020000Y-97790000D01*
X160020000Y-97790000D02*
X165100000Y-102870000D01*
X149771100Y-105923600D02*
X149860000Y-105410000D01*
X149860000Y-105410000D02*
X147320000Y-105410000D01*
X147320000Y-105410000D02*
X146050000Y-104140000D01*
X146050000Y-104140000D02*
X144780000Y-104140000D01*
X144780000Y-104140000D02*
X144780000Y-96520000D01*
X144780000Y-96520000D02*
X156210000Y-85090000D01*
X149771100Y-99283600D02*
X149860000Y-99060000D01*
X149860000Y-99060000D02*
X149860000Y-96520000D01*
X149860000Y-96520000D02*
X152400000Y-93980000D01*
M02*
