M48
;DRILL file {KiCad 4.0.7} date Friday, April 27, 2018 'AMt' 09:02:26 AM
;FORMAT={-:-/ absolute / inch / decimal}
FMAT,2
INCH,TZ
T1C0.016
T2C0.031
T3C0.039
T4C0.040
T5C0.043
T6C0.059
T7C0.067
%
G90
G05
M72
T1
X6.Y-3.7
X6.15Y-3.35
X6.5Y-4.05
T2
X5.8965Y-3.934
X5.8965Y-3.934
X5.8965Y-3.934
X5.8965Y-3.934
X5.8965Y-3.934
X5.8965Y-4.0127
X5.8965Y-4.0127
X5.8965Y-4.0127
X5.8965Y-4.0127
X5.8965Y-4.0127
X5.8965Y-4.0915
X5.8965Y-4.0915
X5.8965Y-4.0915
X5.8965Y-4.0915
X5.8965Y-4.0915
X5.8965Y-4.1702
X5.8965Y-4.1702
X5.8965Y-4.1702
X5.8965Y-4.1702
X5.9752Y-3.934
X5.9752Y-4.0127
X5.9752Y-4.0915
T3
X5.8965Y-3.934
T4
X6.6365Y-1.934
X6.7365Y-1.934
X6.8365Y-1.934
X6.9365Y-1.934
X6.9965Y-3.834
X7.0365Y-1.934
X7.0965Y-3.834
X7.1365Y-1.934
X7.1965Y-3.834
X7.2365Y-1.934
X7.2965Y-3.834
X7.3365Y-1.934
X7.3965Y-3.834
X7.4365Y-1.934
X7.4965Y-3.834
X7.5365Y-1.934
X7.5965Y-3.834
X7.6965Y-1.934
X7.6965Y-3.834
X7.7965Y-1.934
X7.8965Y-1.934
X7.8965Y-3.834
X7.9965Y-1.934
X7.9965Y-3.834
X8.0965Y-1.934
X8.0965Y-3.834
X8.1965Y-1.934
X8.1965Y-3.834
X8.2965Y-1.934
X8.2965Y-3.834
X8.3965Y-1.934
X8.3965Y-3.834
X8.4015Y-2.734
X8.4015Y-2.834
X8.4015Y-2.934
X8.5015Y-2.734
X8.5015Y-2.834
X8.5015Y-2.934
T5
X5.8965Y-3.934
X5.8965Y-4.1112
X6.1524Y-3.934
X6.1524Y-4.1112
T6
X5.8965Y-3.934
T7
X5.7965Y-3.834
X5.7965Y-4.034
X5.9965Y-3.834
X5.9965Y-4.034
T0
M30
